<svg width="60" height="60" viewBox="0 0 60 60" fill="none" xmlns="http://www.w3.org/2000/svg">
<circle r="30" transform="matrix(-1 0 0 1 30 30)" fill="#F6F4FF"/>
<circle r="29.5" transform="matrix(-1 0 0 1 30 30)" stroke="#2408E8" stroke-opacity="0.3"/>
<path d="M26.3915 18.1711C25.6826 18.4293 25.462 18.5232 24.9972 18.7533C24.6123 18.9457 24.5747 18.9551 24.4433 18.8988C24.3681 18.8659 24.171 18.8378 24.0114 18.8331C23.678 18.8331 23.4433 18.941 22.6546 19.4481C21.3495 20.2931 20.2932 21.3494 19.4482 22.6545C18.9412 23.4432 18.8332 23.6779 18.8332 24.0112C18.8379 24.1709 18.866 24.3633 18.8989 24.4432C18.9552 24.5746 18.9459 24.6122 18.7581 24.9924C18.5327 25.4384 18.251 26.1332 18.082 26.6449C17.9553 27.0346 17.9741 27.335 18.1478 27.6308C18.3309 27.9407 18.5609 28.0721 19.3026 28.2693C19.6641 28.3632 19.974 28.4524 19.9881 28.4665C19.9974 28.4805 19.9881 28.5838 19.9646 28.7012C19.7721 29.565 19.7111 31.241 19.8378 32.2644C20.1007 34.3817 20.9692 36.3722 22.3495 38.0294C24.0677 40.1044 26.5418 41.4847 29.3022 41.9119C30.044 42.0292 31.6871 42.0292 32.4664 41.9166C36.5225 41.3157 39.9027 38.5787 41.3392 34.7291C41.5646 34.1329 41.804 33.1799 41.912 32.471C42.0293 31.6917 42.0293 30.0579 41.912 29.3021C41.4848 26.537 40.1045 24.0676 38.0295 22.3447C36.3441 20.9457 34.41 20.1053 32.2645 19.8377C31.2411 19.711 29.5651 19.772 28.7013 19.9645C28.5839 19.988 28.4806 20.002 28.4713 19.988C28.4572 19.9786 28.368 19.6687 28.2694 19.3025C28.0675 18.5561 27.9408 18.3307 27.6262 18.143C27.2882 17.9458 26.9784 17.9505 26.3915 18.1711ZM27.1802 18.988C27.2272 19.0396 27.8938 21.4855 27.8938 21.5841C27.8938 21.6076 27.6262 21.7297 27.3023 21.8564C24.8376 22.8188 22.8189 24.8375 21.8565 27.3022C21.7298 27.6261 21.6077 27.8937 21.5795 27.8937C21.4528 27.8937 19.035 27.2224 18.9787 27.166C18.9271 27.1144 18.9318 27.0534 19.021 26.7811C19.1665 26.3398 19.5515 25.4525 19.7768 25.0394C19.9881 24.645 20.0115 24.4056 19.866 24.2178C19.8144 24.1521 19.7721 24.0582 19.7721 24.0112C19.7721 23.908 20.2181 23.1662 20.6078 22.6169C20.9645 22.1099 22.0866 20.9879 22.603 20.617C23.1757 20.2086 23.9034 19.772 24.0114 19.772C24.0583 19.772 24.1522 19.8142 24.2179 19.8659C24.4104 20.0161 24.6545 19.988 25.0442 19.7767C25.4385 19.556 26.0113 19.3072 26.6028 19.0866C27.0863 18.9082 27.1145 18.9035 27.1802 18.988ZM32.4241 20.8048C34.9592 21.2226 37.0859 22.4292 38.7384 24.3962C40.621 26.6309 41.4566 29.8091 40.9214 32.6963C40.3815 35.5835 38.6633 38.0811 36.1564 39.6115C33.2128 41.4048 29.49 41.5645 26.3962 40.0246C24.3353 39.0012 22.7203 37.3862 21.7439 35.3816C20.9411 33.7244 20.6218 32.147 20.7204 30.2645C20.7439 29.734 20.866 28.8279 20.9223 28.734C20.9364 28.72 21.0866 28.7434 21.2603 28.7904C21.6593 28.9031 21.7626 28.9031 22.0255 28.781C22.1992 28.6965 22.3354 28.6777 22.8236 28.673C23.3964 28.6683 23.4198 28.6636 23.7625 28.4993C24.2555 28.2599 24.4996 28.0205 24.9691 27.321C25.7014 26.2271 26.2272 25.7013 27.3211 24.969C28.0112 24.5089 28.2412 24.2741 28.4947 23.7671C28.6684 23.4197 28.6684 23.4103 28.6731 22.8282C28.6778 22.3775 28.6966 22.1991 28.7529 22.0911C28.8797 21.8423 28.8938 21.6076 28.7952 21.2602C28.7435 21.0865 28.7201 20.9363 28.7342 20.9222C28.828 20.8658 29.7341 20.7438 30.2646 20.7203C30.9547 20.6828 31.9312 20.7203 32.4241 20.8048ZM27.6873 23.3117C27.5605 23.6169 27.368 23.8094 26.8892 24.1239C25.6404 24.9408 24.9456 25.6356 24.124 26.8891C23.7015 27.5369 23.4011 27.7529 22.9175 27.7529H22.6828L22.7767 27.5181C23.5701 25.5041 25.4291 23.6357 27.4713 22.7953L27.7295 22.6921L27.7436 22.9174C27.753 23.0442 27.7248 23.2179 27.6873 23.3117Z" fill="#2408E8"/>
<path d="M25.223 21.0583C24.8568 21.2602 24.9366 21.8376 25.3404 21.9127C25.8333 22.0019 26.1103 21.4339 25.73 21.1146C25.5751 20.9832 25.3967 20.9597 25.223 21.0583Z" fill="#2408E8"/>
<path d="M21.2319 25.0487C20.9831 25.1895 20.922 25.5041 21.1098 25.7247C21.3258 25.9829 21.7201 25.9594 21.861 25.6825C21.9502 25.5134 21.9502 25.3867 21.861 25.2177C21.7389 24.9876 21.476 24.9125 21.2319 25.0487Z" fill="#2408E8"/>
<path d="M31.0857 21.8142C31.0106 21.8518 30.7899 22.1898 30.4801 22.7344C29.9214 23.7109 29.8885 23.8282 30.142 24.0536C30.3251 24.2179 30.5599 24.2273 30.7336 24.0771C30.8885 23.9409 31.7899 22.3682 31.7899 22.2274C31.7899 21.8612 31.4049 21.6358 31.0857 21.8142Z" fill="#2408E8"/>
<path d="M35.4989 23.138C35.4614 23.1521 35.053 23.3774 34.5929 23.6356C33.7478 24.1192 33.6211 24.2271 33.6211 24.4666C33.6211 24.7154 33.8511 24.936 34.1046 24.936C34.2361 24.936 35.6961 24.1098 35.9121 23.9173C36.0294 23.8046 36.0623 23.7389 36.0623 23.6075C36.0623 23.3258 35.7384 23.0582 35.4989 23.138Z" fill="#2408E8"/>
<path d="M29.8944 25.3399C28.4954 25.5934 27.2184 26.3961 26.3546 27.5557C24.6739 29.8185 24.9603 33.0156 27.0165 34.9685C27.6034 35.5225 28.4954 36.0718 28.8193 36.0718C29.162 36.0718 29.3733 35.7525 29.2371 35.4333C29.1808 35.3019 29.1057 35.2361 28.824 35.0953C27.5658 34.4615 26.7161 33.4146 26.3358 32.0344C26.256 31.7386 26.2372 31.5321 26.2325 30.8983C26.2279 29.9735 26.3077 29.6026 26.6738 28.8561C27.1621 27.8515 27.9226 27.105 28.9413 26.6262C29.5188 26.3539 29.9789 26.2459 30.6877 26.2178C31.3919 26.1896 31.8849 26.26 32.514 26.49C34.0303 27.0393 35.157 28.3726 35.5044 30.0298C35.5889 30.4288 35.5749 31.4053 35.481 31.8419C35.373 32.3349 35.1289 32.9452 34.8613 33.3771C34.4341 34.0625 33.6594 34.7526 32.8848 35.1422C32.7534 35.208 32.6079 35.3112 32.5703 35.3676C32.3778 35.6399 32.5938 36.0718 32.9224 36.0718C33.2933 36.0718 34.251 35.4756 34.8566 34.87C35.6547 34.0719 36.1711 33.1048 36.4199 31.9546C36.5373 31.4006 36.5326 30.3537 36.4058 29.7716C35.8988 27.4477 34.1242 25.7342 31.8192 25.3352C31.3074 25.246 30.392 25.2507 29.8944 25.3399Z" fill="#2408E8"/>
<path d="M36.7203 26.4899C36.5419 26.565 36.4433 26.673 36.4104 26.8373C36.3776 27.011 36.4809 27.2551 36.6217 27.3303C36.678 27.3584 37.1334 27.3772 37.7625 27.3772H38.8141L38.9408 27.2457C39.199 26.9782 39.0535 26.5416 38.6873 26.4664C38.4526 26.4195 36.847 26.4383 36.7203 26.4899Z" fill="#2408E8"/>
<path d="M30.5659 27.2787C30.2044 27.6449 30.6269 28.2458 31.0823 28.0111C31.2184 27.9453 31.3687 27.7294 31.3687 27.612C31.3687 27.4853 31.2137 27.2458 31.1058 27.1942C30.8992 27.1003 30.7161 27.1332 30.5659 27.2787Z" fill="#2408E8"/>
<path d="M29.0436 27.6168C28.7526 27.7858 28.6962 28.1379 28.9216 28.368C29.1094 28.5557 29.3394 28.5557 29.546 28.368C29.8417 28.1051 29.6962 27.645 29.2971 27.5839C29.2126 27.5746 29.0953 27.5886 29.0436 27.6168Z" fill="#2408E8"/>
<path d="M32.3307 27.6168C32.0397 27.7858 31.9833 28.1379 32.2087 28.368C32.3965 28.5557 32.6265 28.5557 32.8331 28.368C33.1288 28.1051 32.9833 27.645 32.5843 27.5839C32.4998 27.5746 32.3824 27.5886 32.3307 27.6168Z" fill="#2408E8"/>
<path d="M27.771 28.8702C27.4095 29.1613 27.5879 29.7012 28.0433 29.7012C28.2921 29.7012 28.5033 29.4805 28.5033 29.227C28.5033 28.8749 28.0386 28.6496 27.771 28.8702Z" fill="#2408E8"/>
<path d="M33.4422 28.9032C33.2638 29.0534 33.2262 29.2083 33.3107 29.4149C33.5079 29.889 34.1839 29.7482 34.1839 29.2318C34.1839 29.105 34.1463 29.0252 34.0478 28.9219C33.8694 28.7435 33.6393 28.7388 33.4422 28.9032Z" fill="#2408E8"/>
<path d="M30.3486 29.0909C29.8603 29.2411 29.4331 29.6167 29.1984 30.0909C28.9214 30.6542 28.973 31.3772 29.3298 31.9171C29.7289 32.5321 30.5176 32.8701 31.2077 32.7292C32.0011 32.5649 32.5644 32.0016 32.7287 31.2082C32.9118 30.3256 32.3344 29.382 31.4518 29.105C31.1279 29.0064 30.6349 28.997 30.3486 29.0909ZM31.4095 30.1143C31.8978 30.4383 31.9588 31.119 31.5363 31.5368C30.9636 32.1142 30.0293 31.7622 29.9683 30.95C29.9401 30.5509 30.1185 30.2411 30.4988 30.0345C30.7194 29.9172 31.1654 29.9547 31.4095 30.1143Z" fill="#2408E8"/>
<path d="M22.0439 30.025C21.7294 30.1658 21.6402 30.5226 21.8749 30.748C21.9453 30.8184 22.3678 31.086 22.8138 31.3395C23.5462 31.7573 23.6401 31.7996 23.7997 31.7761C24.0344 31.7385 24.1846 31.5601 24.1846 31.316C24.1846 31.1846 24.1518 31.1001 24.0814 31.025C23.964 30.9123 22.4382 30.0297 22.2833 29.9874C22.2317 29.9734 22.1237 29.9921 22.0439 30.025Z" fill="#2408E8"/>
<path d="M37.8602 30.0298C37.7147 30.0908 37.5645 30.3068 37.5645 30.4523C37.5645 30.6777 37.71 30.7997 38.5644 31.2927C39.5315 31.8513 39.6395 31.8795 39.8695 31.6541C40.0432 31.4758 40.0573 31.1941 39.9024 31.0251C39.7756 30.8936 38.3015 30.0345 38.1278 29.9923C38.0621 29.9782 37.9447 29.9923 37.8602 30.0298Z" fill="#2408E8"/>
<path d="M27.278 30.5649C27.1325 30.7151 27.0996 30.8982 27.1935 31.1048C27.2452 31.2128 27.4846 31.3677 27.6113 31.3677C27.7287 31.3677 27.9447 31.2174 28.0104 31.0813C28.2451 30.6259 27.6442 30.2034 27.278 30.5649Z" fill="#2408E8"/>
<path d="M33.8507 30.5651C33.5878 30.828 33.7193 31.2646 34.0902 31.3444C34.3765 31.4054 34.6911 31.0909 34.63 30.8045C34.5502 30.4336 34.1136 30.3022 33.8507 30.5651Z" fill="#2408E8"/>
<path d="M27.771 32.1564C27.4095 32.4474 27.5879 32.9873 28.0433 32.9873C28.2921 32.9873 28.5033 32.7667 28.5033 32.5131C28.5033 32.161 28.0386 31.9357 27.771 32.1564Z" fill="#2408E8"/>
<path d="M33.4422 32.1894C33.2638 32.3396 33.2262 32.4945 33.3107 32.7011C33.4093 32.9311 33.6252 33.0391 33.86 32.9687C34.0806 32.903 34.1839 32.7621 34.1839 32.5274C34.1839 32.133 33.7426 31.9359 33.4422 32.1894Z" fill="#2408E8"/>
<path d="M29.0856 33.2926C28.926 33.3536 28.7852 33.5696 28.7852 33.748C28.7852 33.9827 28.9964 34.1846 29.2405 34.1846C29.4753 34.1846 29.6161 34.0813 29.6818 33.8606C29.7522 33.6259 29.6443 33.4053 29.4189 33.3114C29.2358 33.2363 29.2218 33.2363 29.0856 33.2926Z" fill="#2408E8"/>
<path d="M32.3721 33.2925C32.0669 33.4145 31.9777 33.8183 32.2078 34.0483C32.4613 34.3018 32.865 34.1985 32.9683 33.8605C33.0387 33.6258 32.9307 33.4052 32.7054 33.3113C32.5223 33.2361 32.5082 33.2361 32.3721 33.2925Z" fill="#2408E8"/>
<path d="M37.0341 33.715C36.8651 33.8465 36.8134 34.0342 36.8792 34.2361C36.9684 34.4849 37.7946 35.8886 37.9073 35.9778C38.1655 36.1844 38.5739 36.0107 38.6303 35.6727C38.6537 35.513 38.6115 35.4239 38.1937 34.6868C37.9402 34.2455 37.6726 33.823 37.6068 33.7479C37.4519 33.5929 37.2125 33.5789 37.0341 33.715Z" fill="#2408E8"/>
<path d="M30.5656 33.8512C30.3027 34.1141 30.4341 34.5507 30.805 34.6305C31.0914 34.6915 31.4059 34.377 31.3449 34.0906C31.2651 33.7198 30.8285 33.5883 30.5656 33.8512Z" fill="#2408E8"/>
<path d="M22.8414 34.532C22.6631 34.7104 22.6396 34.8606 22.7523 35.0718C22.8649 35.2972 22.9917 35.316 24.109 35.3019L25.1324 35.2878L25.2451 35.1564C25.3672 35.0155 25.3953 34.7667 25.3108 34.6024C25.1982 34.4005 25.0432 34.3723 23.9916 34.3723H23.0011L22.8414 34.532Z" fill="#2408E8"/>
<path d="M30.5647 35.7291C30.3394 35.9591 30.4004 36.3206 30.6868 36.4614C30.8792 36.5506 30.9168 36.5506 31.0858 36.4614C31.5318 36.2314 31.3722 35.5929 30.8745 35.5929C30.7478 35.5929 30.668 35.6305 30.5647 35.7291Z" fill="#2408E8"/>
<path d="M34.6719 36.4379C34.6156 36.4567 34.5264 36.5365 34.4701 36.6069C34.3715 36.7337 34.3668 36.7665 34.3809 37.7899L34.395 38.8415L34.5264 38.9542C34.7189 39.1185 34.9912 39.1091 35.1743 38.9307L35.3104 38.7946V37.7524V36.7102L35.1508 36.5506C34.9912 36.3909 34.8644 36.3581 34.6719 36.4379Z" fill="#2408E8"/>
<path d="M26.7015 37.3253C26.2696 37.5789 25.8659 37.8324 25.8142 37.8887C25.7438 37.9591 25.7109 38.0483 25.7109 38.1798C25.7109 38.3394 25.7391 38.3957 25.8659 38.5084C25.9644 38.5929 26.0677 38.6445 26.1616 38.6445C26.3447 38.6445 27.9972 37.7009 28.0723 37.5507C28.2507 37.1939 28.0676 36.8606 27.6968 36.8653C27.5278 36.8653 27.3634 36.9404 26.7015 37.3253Z" fill="#2408E8"/>
<path d="M31.1566 37.607C31.105 37.6304 31.0299 37.6868 30.9876 37.7337C30.8937 37.8417 30.0675 39.2642 30.0064 39.4144C29.9454 39.574 30.0299 39.8416 30.1707 39.9308C30.3069 40.02 30.6073 40.0247 30.72 39.9402C30.8609 39.8369 31.7528 38.2595 31.7763 38.0764C31.7951 37.9356 31.7763 37.8792 31.6683 37.7572C31.5228 37.6023 31.3115 37.5412 31.1566 37.607Z" fill="#2408E8"/>
</svg>
