<svg width="60" height="60" viewBox="0 0 60 60" fill="none" xmlns="http://www.w3.org/2000/svg">
<circle r="30" transform="matrix(-1 0 0 1 30 30)" fill="#F6F4FF"/>
<circle r="29.5" transform="matrix(-1 0 0 1 30 30)" stroke="#2408E8" stroke-opacity="0.3"/>
<path d="M28.6007 16.0621C28.443 16.0913 28.0984 16.2198 27.8356 16.3425C26.9477 16.7689 26.2351 17.6976 26.0657 18.6438C25.9781 19.1287 25.9781 40.8925 26.0657 41.3774C26.2702 42.5105 27.1522 43.486 28.3379 43.889C28.6183 43.9883 28.8461 44 30.207 44C31.568 44 31.7958 43.9883 32.0762 43.889C33.1568 43.521 33.9103 42.7734 34.2724 41.6928C34.3776 41.3832 34.3834 40.9393 34.3834 30.0106C34.3834 19.0586 34.3776 18.638 34.2724 18.3284C33.9629 17.4114 33.3788 16.728 32.5844 16.3483C32.3215 16.2198 31.9477 16.0913 31.7608 16.0562C31.3402 15.9803 29.0096 15.9803 28.6007 16.0621ZM31.3344 17.0317C31.1883 17.1427 31.019 17.5224 30.8379 18.124C30.7211 18.4978 30.7094 18.7023 30.686 20.6181L30.6626 22.7034L30.8145 22.8553C30.8963 22.937 31.0248 23.0013 31.0949 23.0013C31.3519 23.0013 32.8005 22.4814 32.9115 22.3529C32.964 22.2828 33.0108 22.131 33.0108 22.0083C33.0108 21.7221 33.2094 21.0854 33.3612 20.8985L33.4781 20.7525V21.9207V23.0947L32.4734 23.2875C31.9185 23.3985 31.4161 23.5095 31.3577 23.5387C31.2292 23.6029 31.019 24.0644 30.8379 24.6543C30.7211 25.0457 30.7094 25.2326 30.686 27.1601L30.6626 29.2454L30.8145 29.3973C30.8963 29.4791 31.0248 29.5433 31.0949 29.5433C31.3519 29.5433 32.8005 29.0235 32.9115 28.8949C32.964 28.8249 33.0108 28.673 33.0108 28.5503C33.0108 28.2641 33.2094 27.6274 33.3612 27.4405L33.4781 27.2945V28.4627V29.6368L32.4734 29.8295C31.9185 29.9405 31.4161 30.0515 31.3577 30.0807C31.2292 30.1449 31.019 30.6064 30.8379 31.1963C30.7211 31.5877 30.7094 31.7746 30.686 33.7022L30.6626 35.7874L30.8145 35.9393C30.8963 36.0211 31.0248 36.0853 31.0949 36.0853C31.3519 36.0853 32.8005 35.5655 32.9115 35.437C32.964 35.3669 33.0108 35.215 33.0108 35.0923C33.0108 34.8061 33.2094 34.1695 33.3612 33.9825L33.4781 33.8365V35.0047V36.1788L32.4734 36.3715C31.9185 36.4825 31.4161 36.5935 31.3577 36.6227C31.2292 36.687 31.019 37.1484 30.8379 37.7384C30.7211 38.1297 30.7094 38.3166 30.686 40.2442L30.6626 42.3294L30.8145 42.4813C30.8963 42.5631 31.0248 42.6273 31.0949 42.6273C31.3519 42.6273 32.8005 42.1075 32.9115 41.979C32.964 41.9089 33.0108 41.757 33.0108 41.6344C33.0108 41.3423 33.2152 40.7056 33.3671 40.5246L33.4897 40.3785L33.4605 40.8692C33.408 41.7745 32.9231 42.4872 32.0879 42.8785L31.6965 43.0654H30.207H28.7176L28.3262 42.8785C27.7888 42.6273 27.4442 42.2886 27.193 41.7804C27.0178 41.4299 26.9769 41.2781 26.9536 40.8692L26.9244 40.3785L27.047 40.5246C27.1989 40.7056 27.4033 41.3423 27.4033 41.6344C27.4033 41.757 27.45 41.9089 27.5085 41.979C27.6136 42.1075 29.0622 42.6273 29.3192 42.6273C29.3893 42.6273 29.5178 42.5631 29.5996 42.4813L29.7514 42.3294L29.7281 40.2442C29.7047 38.3166 29.693 38.1297 29.5762 37.7384C29.401 37.1542 29.1849 36.6928 29.0622 36.6227C28.9979 36.5877 28.4956 36.4708 27.9465 36.3657L26.936 36.1729V35.0047V33.8365L27.0529 33.9825C27.2047 34.1695 27.4033 34.8061 27.4033 35.0923C27.4033 35.215 27.45 35.3669 27.5085 35.437C27.6136 35.5655 29.0622 36.0853 29.3192 36.0853C29.3893 36.0853 29.5178 36.0211 29.5996 35.9393L29.7514 35.7874L29.7281 33.7022C29.7047 31.7746 29.693 31.5877 29.5762 31.1963C29.401 30.6122 29.1849 30.1508 29.0622 30.0807C28.9979 30.0456 28.4956 29.9288 27.9465 29.8237L26.936 29.6309V28.4627V27.2945L27.0529 27.4405C27.2047 27.6274 27.4033 28.2641 27.4033 28.5503C27.4033 28.673 27.45 28.8249 27.5085 28.8949C27.6136 29.0235 29.0622 29.5433 29.3192 29.5433C29.3893 29.5433 29.5178 29.4791 29.5996 29.3973L29.7514 29.2454L29.7281 27.1601C29.7047 25.2326 29.693 25.0457 29.5762 24.6543C29.401 24.0702 29.1849 23.6088 29.0622 23.5387C28.9979 23.5036 28.4956 23.3868 27.9465 23.2817L26.936 23.0889V21.9207V20.7525L27.0529 20.8985C27.2047 21.0854 27.4033 21.7221 27.4033 22.0083C27.4033 22.131 27.45 22.2828 27.5085 22.3529C27.6136 22.4814 29.0622 23.0013 29.3192 23.0013C29.3893 23.0013 29.5178 22.937 29.5996 22.8553L29.7514 22.7034L29.7281 20.6181C29.7047 18.7023 29.693 18.4978 29.5762 18.124C29.3951 17.5224 29.2257 17.1427 29.0797 17.0317C28.957 16.9324 29.0038 16.9266 30.207 16.9266C31.4103 16.9266 31.457 16.9324 31.3344 17.0317ZM28.1685 17.7443L28.5014 17.8086L28.5949 18.1123C28.7701 18.6906 28.8052 19.0527 28.8052 20.4663V21.8856L28.6183 21.8214C28.3379 21.7279 28.297 21.6812 28.2503 21.395C28.1802 20.9102 27.7947 20.2501 27.3391 19.8179L26.9185 19.4265L26.9536 19.0469C27.0178 18.4102 27.4617 17.5866 27.7187 17.645C27.783 17.6625 27.9874 17.7034 28.1685 17.7443ZM32.9757 17.8202C33.221 18.1415 33.4196 18.6438 33.4605 19.041L33.4897 19.409L33.0283 19.8763C32.5376 20.3728 32.2982 20.7817 32.1813 21.3191C32.1054 21.6754 32.0587 21.7338 31.8017 21.8214L31.6089 21.8856V20.4663C31.6089 19.0527 31.6439 18.6906 31.8192 18.1123L31.9126 17.8086L32.2456 17.7443C32.4267 17.7093 32.6019 17.6684 32.6311 17.6567C32.7713 17.61 32.8355 17.6392 32.9757 17.8202ZM27.7538 24.1987C28.151 24.2805 28.4781 24.3506 28.4839 24.3623C28.5423 24.4499 28.6475 24.8062 28.7176 25.1333C28.7818 25.4312 28.8052 25.9394 28.8052 26.9849V28.4277L28.6183 28.3634C28.3379 28.27 28.297 28.2232 28.2503 27.937C28.1802 27.458 27.7947 26.7922 27.3449 26.3658L26.936 25.9802V25.0165C26.936 24.4849 26.9594 24.0527 26.9886 24.0527C27.012 24.0527 27.3624 24.1169 27.7538 24.1987ZM33.4781 25.0106V25.9686L33.0224 26.4242C32.5376 26.9148 32.2982 27.3237 32.1813 27.8611C32.1054 28.2174 32.0587 28.2758 31.8017 28.3634L31.6089 28.4277V27.0083C31.6089 26.2256 31.6381 25.4429 31.6673 25.2735C31.7549 24.8003 31.9068 24.3447 31.9827 24.3389C32.0178 24.3389 32.339 24.2746 32.6895 24.1987C33.0458 24.1286 33.3671 24.0644 33.408 24.0585C33.4605 24.0527 33.4781 24.2805 33.4781 25.0106ZM27.7538 30.7407C28.151 30.8225 28.4781 30.8926 28.4839 30.9043C28.5423 30.9919 28.6475 31.3482 28.7176 31.6753C28.7818 31.9732 28.8052 32.4814 28.8052 33.5269V34.9697L28.6183 34.9054C28.3379 34.812 28.297 34.7652 28.2503 34.479C28.1802 34.0001 27.7947 33.3342 27.3449 32.9078L26.936 32.5223V31.5585C26.936 31.0269 26.9594 30.5947 26.9886 30.5947C27.012 30.5947 27.3624 30.659 27.7538 30.7407ZM33.4781 31.5526V32.5106L33.0224 32.9662C32.5376 33.4568 32.2982 33.8657 32.1813 34.4031C32.1054 34.7594 32.0587 34.8178 31.8017 34.9054L31.6089 34.9697V33.5503C31.6089 32.7676 31.6381 31.9849 31.6673 31.8155C31.7549 31.3424 31.9068 30.8868 31.9827 30.8809C32.0178 30.8809 32.339 30.8167 32.6895 30.7407C33.0458 30.6706 33.3671 30.6064 33.408 30.6005C33.4605 30.5947 33.4781 30.8225 33.4781 31.5526ZM27.7538 37.2827C28.151 37.3645 28.4781 37.4346 28.4839 37.4463C28.5423 37.5339 28.6475 37.8902 28.7176 38.2173C28.7818 38.5152 28.8052 39.0234 28.8052 40.0689V41.5117L28.6183 41.4474C28.3379 41.354 28.297 41.3073 28.2503 41.021C28.1802 40.5421 27.7947 39.8762 27.3449 39.4498L26.936 39.0643V38.1005C26.936 37.569 26.9594 37.1367 26.9886 37.1367C27.012 37.1367 27.3624 37.201 27.7538 37.2827ZM33.4781 38.0947V39.0526L33.0224 39.5082C32.5376 39.9989 32.2982 40.4077 32.1813 40.9451C32.1054 41.3014 32.0587 41.3598 31.8017 41.4474L31.6089 41.5117V40.0923C31.6089 39.3096 31.6381 38.5269 31.6673 38.3575C31.7549 37.8844 31.9068 37.4288 31.9827 37.4229C32.0178 37.4229 32.339 37.3587 32.6895 37.2827C33.0458 37.2127 33.3671 37.1484 33.408 37.1426C33.4605 37.1367 33.4781 37.3645 33.4781 38.0947Z" fill="#2408E8"/>
</svg>
