<svg width="60" height="60" viewBox="0 0 60 60" fill="none" xmlns="http://www.w3.org/2000/svg">
<circle r="30" transform="matrix(-1 0 0 1 30 30)" fill="#F6F4FF"/>
<circle r="29.5" transform="matrix(-1 0 0 1 30 30)" stroke="#2408E8" stroke-opacity="0.3"/>
<path d="M24.5519 19.3301C22.8047 19.7106 22.5276 19.781 22.0626 19.9689C21.5131 20.1943 18.681 21.7208 18.4697 21.9086C18.1644 22.1763 18 22.5474 18 22.956C18 23.2378 18.0376 23.3881 18.2724 24.0362C18.5965 24.9286 18.7092 25.0742 19.0286 25.0319C19.1366 25.0178 19.2634 24.9943 19.3151 24.9755C19.3949 24.9521 19.4372 25.0084 19.611 25.356L19.8129 25.7646L19.6955 25.8867C19.5264 26.0605 19.5264 26.3658 19.6908 26.5255C19.8035 26.6429 19.8458 26.657 20.1088 26.6617C20.2403 26.6664 20.2638 26.6992 20.4376 27.0844C20.5738 27.3849 20.6114 27.5071 20.5691 27.5258C20.4939 27.5493 20.3718 27.7842 20.3718 27.911C20.3718 28.1834 20.6536 28.4182 20.926 28.3665C21.0481 28.3478 21.0622 28.3665 21.2501 28.7564C21.4239 29.1321 21.438 29.1791 21.3722 29.2354C21.2595 29.3294 21.175 29.5642 21.2031 29.7098C21.2407 29.9118 21.4802 30.0808 21.6916 30.062L21.8654 30.048L22.0673 30.4519L22.2646 30.8605L22.1425 31.0108C21.8701 31.3301 22.072 31.7622 22.4947 31.7622H22.6967L23.0301 32.4573C23.3401 33.1055 23.3542 33.1572 23.3025 33.2887C23.265 33.3732 23.2415 33.6456 23.2368 33.9838V34.5333L22.584 34.956C22.1566 35.2331 21.8888 35.4444 21.809 35.5572C21.6352 35.8155 21.5836 36.1818 21.6023 37.0695C21.6164 37.7693 21.6258 37.8679 21.7292 38.0699C21.7855 38.192 21.9076 38.347 21.9969 38.4127C22.2928 38.6429 22.429 38.6617 23.6172 38.6664H24.7256L25.1436 39.399C25.5992 40.1928 25.8294 40.4605 26.144 40.545C26.2802 40.5779 27.2384 40.592 29.2861 40.5826C32.1699 40.5685 32.2403 40.5638 32.6067 40.4605C33.499 40.2116 34.2928 39.6527 34.8329 38.8871L34.9926 38.6664H36.2419C37.5804 38.6617 37.7025 38.6476 38.0031 38.4127C38.0924 38.347 38.2145 38.192 38.2708 38.0699C38.3742 37.8679 38.3836 37.7693 38.3977 37.0695C38.4164 36.1818 38.3648 35.8155 38.191 35.5572C38.1112 35.4444 37.8434 35.2331 37.416 34.956L36.7632 34.5333V33.9838C36.7585 33.6456 36.735 33.3732 36.6975 33.2887C36.6458 33.1572 36.6599 33.1055 36.9699 32.4573L37.3033 31.7622H37.5053C37.928 31.7622 38.1299 31.3301 37.8575 31.0108L37.7354 30.8605L37.9327 30.4519L38.1346 30.048L38.3084 30.062C38.5198 30.0808 38.7593 29.9118 38.7969 29.7098C38.825 29.5642 38.7405 29.3294 38.6278 29.2354C38.562 29.1791 38.5761 29.1321 38.7499 28.7611C38.9425 28.3525 38.9519 28.3478 39.0975 28.3712C39.3558 28.4088 39.6282 28.174 39.6282 27.9063C39.6282 27.7842 39.5061 27.5493 39.4309 27.5258C39.3887 27.5071 39.4262 27.3849 39.5624 27.0844C39.7362 26.6992 39.7597 26.6664 39.8912 26.6617C40.1542 26.657 40.1965 26.6429 40.3092 26.5255C40.4736 26.3658 40.4736 26.0605 40.3045 25.8867L40.1871 25.7646L40.389 25.356C40.5628 25.0084 40.6051 24.9521 40.6849 24.9755C40.7366 24.9943 40.8634 25.0178 40.9714 25.0319C41.2861 25.0742 41.3988 24.9286 41.7229 24.0362C41.9624 23.3881 42 23.2425 42 22.956C42 22.5474 41.8356 22.1763 41.5303 21.9086C41.3706 21.7677 39.2994 20.6264 38.2802 20.1192C37.7166 19.8374 37.2564 19.7153 35.1194 19.2644C33.5977 18.9497 33.3628 18.9309 32.9448 19.1282C32.7006 19.2456 32.4282 19.4898 32.3202 19.7012C32.1746 19.9783 31.7378 21.2464 31.7378 21.3873C31.7378 21.5939 31.8599 21.7442 32.0947 21.8335C32.2732 21.8992 32.2967 21.9274 32.2732 22.0119C32.2544 22.0683 32.2027 22.2562 32.1558 22.43C32.1088 22.6084 32.0665 22.7634 32.0524 22.7728C32.0431 22.7822 31.8975 22.7305 31.7237 22.6507C31.1554 22.3924 30.7045 22.3031 30 22.3031C29.2955 22.3031 28.8352 22.3971 28.2716 22.6554C28.1025 22.7305 27.9569 22.7822 27.9476 22.7728C27.9335 22.7634 27.8912 22.6084 27.8442 22.43C27.7973 22.2562 27.7456 22.0683 27.7268 22.0119C27.7033 21.9274 27.7268 21.8992 27.9053 21.8335C28.1401 21.7442 28.2622 21.5939 28.2622 21.3873C28.2622 21.2464 27.8254 19.9783 27.6798 19.7012C27.5718 19.4898 27.2994 19.2456 27.0505 19.1282C26.6184 18.9262 26.3131 18.9497 24.5519 19.3301ZM26.7828 20.0769C26.9049 20.2225 27.2055 21.0491 27.1538 21.0961C27.1303 21.1149 26.6795 21.2887 26.1487 21.4765C25.0638 21.871 24.9276 21.9556 24.9276 22.2656C24.9276 22.4018 24.9605 22.4816 25.045 22.5709C25.2423 22.7634 25.3644 22.7587 26.0548 22.5098C26.4023 22.383 26.717 22.275 26.7546 22.2656C26.8016 22.2562 26.8532 22.3783 26.9331 22.693C26.9941 22.9325 27.0411 23.1392 27.0317 23.1438C27.0223 23.1532 25.6556 23.6558 23.9883 24.2617C22.3209 24.8722 20.9025 25.3889 20.8274 25.417C20.7006 25.4687 20.6959 25.464 20.5127 25.0601C20.4094 24.8393 20.3249 24.6421 20.3249 24.6233C20.3249 24.6045 20.616 24.4871 20.9683 24.3603C21.7057 24.102 21.8748 23.9799 21.8748 23.7121C21.8748 23.4773 21.6728 23.2519 21.4521 23.2472C21.3534 23.2472 20.8744 23.3928 20.2826 23.6088C19.6344 23.8437 19.2681 23.9564 19.2493 23.9235C19.2305 23.8953 19.146 23.6652 19.0568 23.4116C18.9112 22.9889 18.9018 22.9372 18.9581 22.7963C18.9957 22.7164 19.0755 22.6084 19.146 22.5615C19.2869 22.4628 21.3816 21.345 22.0063 21.035C22.5933 20.7438 22.8705 20.664 24.6364 20.2789C26.3789 19.8937 26.609 19.875 26.7828 20.0769ZM35.3354 20.2742C36.829 20.5936 37.3738 20.7391 37.773 20.9176C38.0125 21.0256 40.6286 22.4206 40.807 22.5333C40.901 22.5943 41.0043 22.7118 41.0372 22.7963C41.0982 22.9372 41.0888 22.9842 40.9432 23.4116C40.854 23.6652 40.7695 23.8953 40.7507 23.9235C40.7319 23.9564 39.2994 23.4585 36.8055 22.5521C34.6497 21.7724 32.8697 21.1149 32.8462 21.0961C32.8039 21.0585 33.0575 20.3071 33.175 20.1239C33.2548 20.0018 33.3957 19.936 33.5742 19.9313C33.6399 19.9266 34.4337 20.0816 35.3354 20.2742ZM36.5519 23.4585C38.2568 24.0785 39.6611 24.5904 39.6705 24.6045C39.6798 24.6139 39.6047 24.8065 39.4967 25.0319C39.3793 25.2902 39.2853 25.4405 39.2431 25.4311C39.1585 25.4076 32.9871 23.1626 32.9683 23.1438C32.9542 23.1345 33.1186 22.43 33.1703 22.2891C33.1843 22.2421 33.2219 22.2421 33.3205 22.2797C33.391 22.3078 34.847 22.8386 36.5519 23.4585ZM30.8454 23.3317C30.9863 23.3693 31.2822 23.4867 31.5029 23.5947C31.8176 23.7544 31.9867 23.8765 32.3061 24.1959C32.6395 24.5341 32.7429 24.675 32.926 25.046C33.4614 26.1403 33.4004 27.2722 32.7476 28.2867C31.6204 30.0386 29.1828 30.3016 27.6986 28.8409C26.6795 27.8405 26.4352 26.3564 27.074 25.046C27.2571 24.6703 27.3511 24.5341 27.6986 24.1912C28.0415 23.853 28.1777 23.7544 28.5487 23.5759C28.793 23.4585 29.1076 23.3411 29.2485 23.3129C29.3894 23.2847 29.5491 23.2519 29.6008 23.2425C29.7746 23.2002 30.5824 23.2566 30.8454 23.3317ZM26.2755 24.4918C26.1159 24.844 25.9139 25.3654 25.9139 25.4264C25.9139 25.4687 25.8857 25.5251 25.8528 25.5579C25.7918 25.6049 21.5366 27.1689 21.5178 27.1454C21.4755 27.0984 21.175 26.455 21.1609 26.3892C21.1468 26.3141 21.4943 26.1732 23.683 25.3701C25.0779 24.8581 26.238 24.4401 26.2614 24.4401C26.2802 24.4354 26.2896 24.4636 26.2755 24.4918ZM36.2795 25.356C37.6697 25.8632 38.8204 26.2906 38.8438 26.3094C38.8673 26.3329 38.5479 27.0797 38.4822 27.1454C38.4634 27.1642 34.2082 25.6049 34.1472 25.5579C34.1143 25.5298 34.0861 25.4687 34.0861 25.4264C34.0861 25.3654 33.8841 24.844 33.7245 24.4918C33.7104 24.4636 33.7104 24.4354 33.7245 24.4354C33.7386 24.4354 34.8845 24.8487 36.2795 25.356ZM25.8247 27.0984C25.8669 27.3521 25.8951 27.5634 25.8951 27.5634C25.8904 27.5681 25.1202 27.8499 24.1761 28.1928C23.2321 28.5356 22.4384 28.8268 22.4055 28.8362C22.3726 28.8503 22.2646 28.6859 22.1378 28.437L21.9264 28.0143L22.4524 27.8217C22.7436 27.7137 23.5796 27.4084 24.317 27.1407C25.0544 26.8683 25.6791 26.6476 25.7072 26.6476C25.7307 26.6429 25.7871 26.8495 25.8247 27.0984ZM36.0681 27.2816C37.0309 27.6339 37.8763 27.9438 37.9468 27.9673L38.0736 28.0143L37.8622 28.437C37.6932 28.7752 37.6368 28.8503 37.571 28.8268C37.5288 28.8127 36.7303 28.5215 35.8004 28.1834C34.8705 27.8452 34.1096 27.5681 34.1049 27.5634C34.0861 27.5352 34.2552 26.6429 34.2787 26.6429C34.2975 26.6429 35.1053 26.9294 36.0681 27.2816ZM26.3648 28.6483C26.4352 28.7752 26.5526 28.9536 26.6325 29.0523C26.7076 29.1509 26.764 29.2354 26.7546 29.2448C26.7311 29.2636 23.3401 30.4988 23.2274 30.5317C23.1663 30.5458 23.1053 30.4566 22.955 30.1372C22.8517 29.9118 22.7765 29.7192 22.7859 29.7098C22.7953 29.7004 23.5703 29.4092 24.5096 29.0664C25.4489 28.7188 26.2239 28.437 26.2286 28.4323C26.2286 28.4276 26.2896 28.5262 26.3648 28.6483ZM37.2141 29.7098C37.2235 29.7192 37.1483 29.9118 37.045 30.1372C36.8947 30.4566 36.8337 30.5458 36.7726 30.5317C36.6599 30.4988 33.2689 29.2636 33.2454 29.2448C33.236 29.2354 33.2924 29.1509 33.3675 29.0523C33.4474 28.9536 33.5648 28.7752 33.6352 28.6577L33.7573 28.4417L35.481 29.0664C36.425 29.4092 37.2047 29.7004 37.2141 29.7098ZM27.8254 30.1231L28.0838 30.2734L27.8818 30.3767C27.7691 30.4331 26.8861 30.9403 25.9186 31.4992C24.9511 32.0581 24.1479 32.5137 24.1292 32.5137C24.1151 32.5137 23.9789 32.2648 23.8333 31.9642C23.6454 31.5744 23.5796 31.4053 23.6219 31.3912C23.6548 31.3818 24.5378 31.0577 25.5851 30.6773C26.6325 30.2969 27.5061 29.9822 27.5295 29.9775C27.553 29.9775 27.6845 30.0433 27.8254 30.1231ZM34.3069 30.6397C35.3119 31.0061 36.1996 31.3254 36.2841 31.3583L36.4391 31.4147L36.1714 31.9501C36.0305 32.246 35.899 32.4996 35.8896 32.509C35.8708 32.5278 35.5421 32.3446 33.499 31.1611C32.8556 30.7853 32.2309 30.4331 32.1229 30.3767L31.9162 30.2734L32.1699 30.1278C32.3061 30.0433 32.4329 29.9775 32.4517 29.9775C32.4705 29.9775 33.3065 30.2734 34.3069 30.6397ZM33.7432 32.3869L35.8004 33.5752L35.8239 34.2562C35.8427 34.754 35.8661 34.9654 35.9178 35.0452C35.9554 35.1016 36.317 35.3646 36.7162 35.6276L37.4442 36.1067L37.4583 36.8534C37.4677 37.3607 37.4536 37.619 37.416 37.6613C37.3738 37.7129 37.1577 37.727 36.3781 37.727C35.4622 37.727 35.3965 37.7223 35.42 37.6425C35.5092 37.3466 35.5515 36.8487 35.528 36.3885C35.4434 34.693 34.2881 33.2652 32.6067 32.7861C32.1135 32.6452 31.0849 32.6358 30.6106 32.7673C30.1926 32.88 29.5068 33.2135 29.225 33.4343C29.0982 33.5376 28.9667 33.6362 28.9339 33.655C28.9057 33.6738 28.7648 33.608 28.6145 33.5047C28.1354 33.1665 27.5202 33.0256 26.9519 33.1243C25.6697 33.3403 24.8102 34.5896 25.0732 35.8577C25.2986 36.9427 26.3883 37.7646 27.4685 37.666L27.7315 37.6425L27.8818 38.0323C28.0603 38.5067 28.4172 39.0609 28.7554 39.399L29.009 39.6527L27.6892 39.6433L26.3648 39.6292L25.8669 38.765C25.5898 38.2906 25.3174 37.8632 25.2564 37.8116C25.1624 37.7364 25.045 37.727 23.8943 37.727C22.8798 37.727 22.6262 37.7129 22.584 37.6613C22.5464 37.619 22.5323 37.3607 22.5417 36.8534L22.5558 36.1067L23.2838 35.6276C23.683 35.3646 24.0446 35.1016 24.0822 35.0452C24.1339 34.9654 24.1573 34.754 24.1761 34.2562L24.1996 33.5752L26.2427 32.3916L28.2857 31.208L29.9859 31.2033L31.6814 31.1986L33.7432 32.3869ZM32.5268 33.7489C33.0153 33.918 33.3487 34.1294 33.7339 34.5098C34.3397 35.1063 34.6356 35.9 34.5886 36.783C34.5464 37.5767 34.2693 38.2014 33.7104 38.7603C33.3534 39.1125 33.0106 39.3286 32.5268 39.4977C32.2262 39.6057 32.1088 39.6245 31.5969 39.6245C31.0802 39.6245 30.9675 39.6104 30.6434 39.4977C29.6947 39.1689 28.9432 38.3845 28.6568 37.4217C28.5393 37.0366 28.5393 36.21 28.6568 35.8296C28.9808 34.7493 29.7699 33.9791 30.8548 33.6879C31.3386 33.5564 32.0477 33.5799 32.5268 33.7489ZM27.91 34.181C28.2904 34.3642 28.2904 34.3783 28.0791 34.7728C27.8395 35.219 27.708 35.6652 27.6376 36.2382C27.5765 36.7595 27.5577 36.7783 27.1444 36.7219C26.501 36.6327 25.9609 36.0362 25.9609 35.4069C25.9609 34.7869 26.4023 34.2186 27.0176 34.0589C27.2524 33.9979 27.647 34.0495 27.91 34.181Z" fill="#2408E8"/>
<path d="M23.0911 22.6413C22.9549 22.7634 22.9314 22.8103 22.9361 22.9841C22.9408 23.1485 22.969 23.2096 23.0958 23.3223C23.2273 23.4397 23.2743 23.4538 23.4433 23.435C23.697 23.4021 23.8472 23.2284 23.8472 22.9794C23.8472 22.7305 23.697 22.5567 23.4433 22.5239C23.2743 22.5004 23.2273 22.5192 23.0911 22.6413Z" fill="#2408E8"/>
<path d="M29.5441 24.6937C28.9758 24.8487 28.5484 25.2057 28.2948 25.7411C28.1586 26.0276 28.1445 26.0981 28.1445 26.502C28.1445 26.9059 28.1586 26.981 28.2901 27.2534C28.5437 27.7842 28.8913 28.1035 29.4267 28.282C30.1171 28.5168 30.9203 28.2961 31.4087 27.7419C31.4933 27.6433 31.6295 27.4225 31.7093 27.2534C31.8408 26.981 31.8549 26.9059 31.8549 26.502C31.8549 26.0981 31.8408 26.0276 31.7093 25.7505C31.5167 25.3466 31.2443 25.0507 30.9062 24.8722C30.4459 24.628 30.0044 24.5716 29.5441 24.6937ZM30.5023 25.7317C30.7935 25.9149 30.9156 26.1544 30.9156 26.5348C30.9156 26.7791 30.8921 26.8542 30.7747 27.0233C30.6948 27.1313 30.5398 27.2722 30.4271 27.3333C29.7132 27.709 28.8772 27.0233 29.1073 26.253C29.1919 25.9619 29.314 25.821 29.5911 25.68C29.9058 25.5204 30.1876 25.5391 30.5023 25.7317Z" fill="#2408E8"/>
<path d="M30.8127 36.1631C30.4839 36.2289 30.3571 36.6845 30.5966 36.9381L30.7234 37.0696H31.5829C32.433 37.0696 32.4471 37.0696 32.5598 36.9569C32.7289 36.7878 32.7571 36.614 32.6491 36.4167C32.5222 36.1772 32.3532 36.1349 31.5735 36.1396C31.2119 36.1396 30.869 36.1537 30.8127 36.1631Z" fill="#2408E8"/>
</svg>
