<svg width="60" height="60" viewBox="0 0 60 60" fill="none" xmlns="http://www.w3.org/2000/svg">
<circle r="30" transform="matrix(-1 0 0 1 30 30)" fill="#F6F4FF"/>
<circle r="29.5" transform="matrix(-1 0 0 1 30 30)" stroke="#2408E8" stroke-opacity="0.3"/>
<path d="M35.7204 18.0269C33.8258 18.2895 32.2454 19.415 31.4154 21.0986C31.0214 21.8958 30.8432 22.6602 30.8432 23.5653C30.8432 24.7659 31.073 25.4646 31.9312 26.8574C32.433 27.6781 32.6862 28.1846 32.841 28.6958C32.9629 29.085 32.9723 29.1788 32.9723 29.962C32.9723 30.9327 32.9113 31.2469 32.5737 31.9644L32.3814 32.3677L31.964 32.5647C31.2371 32.8976 30.9417 32.9586 29.9991 32.9586C28.7845 32.9539 28.4468 32.8461 27.0681 32.0254C25.9895 31.3782 25.9004 31.3313 25.5205 31.1813C24.8452 30.9139 24.3575 30.8248 23.5462 30.8248C21.4687 30.8295 19.5882 31.9738 18.6362 33.8168C16.9808 37.0245 18.6925 40.8747 22.1909 41.8079C22.7537 41.958 23.5462 42.0189 24.1324 41.9533C25.0891 41.8454 25.6894 41.6109 26.8899 40.8747C28.067 40.1525 28.6391 39.9227 29.5254 39.8289C30.7776 39.6929 31.9078 40.0446 33.2068 40.9778C33.8539 41.4421 34.6699 41.7751 35.5094 41.9204C36.2832 42.0517 37.4227 41.9439 38.2293 41.6672C39.9645 41.0622 41.1885 39.7538 41.7419 37.9108C41.9201 37.3059 41.9716 36.9542 41.9716 36.3633C41.9716 35.355 41.5871 34.2576 40.7617 32.893C39.866 31.4157 39.6409 30.3512 39.927 28.9537C40.0348 28.405 40.2693 27.8892 40.8039 27.0169C41.4089 26.018 41.6434 25.5584 41.7888 25.0566C42.5297 22.4914 41.2682 19.7058 38.839 18.5475C38.0746 18.1817 37.4462 18.0316 36.588 18.0035C36.2785 17.9941 35.8892 18.0035 35.7204 18.0269ZM37.1976 18.7069C38.3935 18.8992 39.5331 19.5604 40.2599 20.4796C41.4089 21.9287 41.6715 23.8795 40.9352 25.4975C40.8602 25.6569 40.5929 26.1259 40.3444 26.5385C40.0911 26.9512 39.8144 27.4249 39.73 27.5937C39.3455 28.3581 39.186 29.0616 39.186 29.9901C39.186 31.125 39.4674 32.0394 40.1615 33.1556C40.7852 34.1545 41.1088 34.9001 41.2776 35.6973C41.5965 37.2355 40.7383 39.3412 39.383 40.3447C37.3665 41.8407 34.5996 41.6156 32.8738 39.8195C31.8468 38.7456 31.3825 37.4184 31.5091 35.9412C31.5795 35.1299 31.814 34.5343 32.5315 33.3666C33.4553 31.8566 33.6992 31.0593 33.6429 29.7322C33.596 28.6442 33.3568 27.9595 32.5502 26.6464C31.6827 25.2301 31.4904 24.6627 31.4951 23.5372C31.4951 22.5571 31.7765 21.6473 32.3298 20.8079C32.7378 20.1841 33.5351 19.4901 34.2432 19.1384C35.1248 18.7022 36.2034 18.5428 37.1976 18.7069ZM24.4138 31.5377C25.0281 31.6361 25.5909 31.8847 26.6273 32.5178C27.7481 33.2072 28.3015 33.4416 29.1128 33.5729C29.8772 33.6949 30.8385 33.6433 31.5138 33.4369C31.6358 33.3994 31.7342 33.3807 31.7342 33.3901C31.7342 33.4041 31.6498 33.5589 31.5514 33.7324C31.1058 34.5249 30.8901 35.28 30.8573 36.1991C30.8198 37.2168 31.0074 38.0656 31.4623 38.9519C31.5748 39.1676 31.6686 39.3552 31.678 39.3693C31.6827 39.3881 31.5279 39.3599 31.3263 39.3083C30.8573 39.1864 29.6943 39.1442 29.1456 39.2239C28.6954 39.2849 28.067 39.4865 27.6449 39.6976C27.4808 39.7773 26.9884 40.0634 26.5475 40.3307C25.2485 41.1138 24.7749 41.2827 23.7619 41.3202C23.2367 41.3389 23.0491 41.3249 22.6505 41.2451C20.7043 40.8418 19.2646 39.4631 18.7769 37.5357C18.6925 37.2074 18.6784 37.001 18.6784 36.3867C18.6784 35.7255 18.6925 35.5801 18.8003 35.1815C19.0301 34.342 19.4147 33.648 19.9868 33.0383C21.1498 31.805 22.7208 31.275 24.4138 31.5377Z" fill="#2408E8"/>
<path d="M35.7195 20.8691C34.7441 21.1317 34.0172 21.8446 33.7217 22.8341C33.5904 23.2796 33.6092 23.9596 33.7686 24.4238C33.9844 25.0616 34.322 25.5165 34.8238 25.8542C36.1416 26.7452 37.872 26.4029 38.7537 25.0804C39.1288 24.513 39.2836 23.6219 39.1242 22.9419C38.8897 21.943 38.0878 21.1271 37.0936 20.8691C36.7372 20.7753 36.0619 20.7753 35.7195 20.8691ZM37.042 21.5351C37.9658 21.8399 38.5333 22.6184 38.5333 23.5844C38.5333 25.2258 36.7653 26.234 35.3443 25.4087C34.8003 25.0898 34.4064 24.513 34.3079 23.8752C34.1485 22.8528 34.8003 21.8352 35.8086 21.5257C36.1228 21.4272 36.7278 21.4319 37.042 21.5351Z" fill="#2408E8"/>
<path d="M35.9975 33.6433C34.6282 33.8543 33.6387 35.0174 33.6387 36.4102C33.6387 37.3715 34.1076 38.2251 34.9189 38.7503C35.341 39.0223 35.7115 39.1348 36.2602 39.163C37.1184 39.2052 37.789 38.9519 38.3705 38.3611C38.9614 37.7655 39.2193 37.0995 39.1771 36.2695C39.1349 35.3034 38.6612 34.5109 37.8218 34.0044C37.3013 33.6902 36.6025 33.5542 35.9975 33.6433ZM36.851 34.3186C37.4138 34.4405 37.8734 34.7501 38.1876 35.2237C38.4549 35.627 38.544 35.9694 38.5252 36.504C38.5112 36.9026 38.4877 36.9917 38.3423 37.3012C37.9719 38.0797 37.2684 38.5205 36.3962 38.5205C35.3504 38.5205 34.4922 37.7842 34.314 36.7291C34.1592 35.8334 34.6657 34.8767 35.5098 34.4828C35.9835 34.2576 36.354 34.2154 36.851 34.3186Z" fill="#2408E8"/>
<path d="M23.2227 33.6434C22.1957 33.7794 21.2859 34.5156 20.9482 35.4864C20.8075 35.8897 20.77 36.6025 20.8732 37.0386C21.1077 38.0281 21.9471 38.8769 22.9272 39.1067C24.4092 39.4538 25.8958 38.5627 26.2803 37.0996C26.3788 36.715 26.3788 36.0444 26.2709 35.6833C25.8817 34.328 24.5874 33.4651 23.2227 33.6434ZM24.2356 34.3656C25.2111 34.6657 25.8629 35.7115 25.6941 36.7104C25.5581 37.5357 24.9625 38.2157 24.17 38.4502C23.8605 38.544 23.3305 38.5393 23.007 38.4455C21.45 37.9906 20.9435 36.0397 22.0878 34.9002C22.6552 34.3327 23.4665 34.1311 24.2356 34.3656Z" fill="#2408E8"/>
</svg>
