<svg width="60" height="60" viewBox="0 0 60 60" fill="none" xmlns="http://www.w3.org/2000/svg">
<circle r="30" transform="matrix(-1 0 0 1 30 30)" fill="#F6F4FF"/>
<circle r="29.5" transform="matrix(-1 0 0 1 30 30)" stroke="#2408E8" stroke-opacity="0.3"/>
<path d="M19.7746 16.1722C19.7746 16.4843 19.9253 17.3615 20.0491 17.749C20.4474 19.046 21.3676 20.2569 22.5193 20.9996L23.0252 21.3279H22.2879C21.5721 21.3279 21.5399 21.3225 21.2654 21.1718C19.9738 20.4561 18.3269 21.2472 18.0525 22.7218C17.9825 23.0985 17.9825 27.2425 18.0525 28.082C18.1763 29.5405 18.5422 30.9828 19.1234 32.339C19.2903 32.7265 19.8715 33.8351 20.0168 34.0504C20.0599 34.1096 20.0975 34.1796 20.0975 34.2011C20.0975 34.228 19.8338 34.2441 19.5055 34.2441H18.9136V35.5627V36.8812H19.8607H20.8079L20.7703 37.0319C20.3343 38.7702 20.1083 41.2889 20.3236 41.9777C20.5281 42.6182 21.1039 43.2156 21.7282 43.4254C22.1372 43.5654 22.8315 43.5546 23.2297 43.3985C23.811 43.1725 24.2846 42.7043 24.5214 42.1123C24.6398 41.8109 24.6451 41.7625 24.6613 39.3407L24.6774 36.8812H25.108H25.5331V37.7692V38.6572H26.8786H28.224V35.5627V32.4682H26.8786H25.5331V33.3562V34.2441H25.1026H24.672V33.9051V33.5607L24.2307 33.2108C23.106 32.3229 22.1857 31.1173 21.7067 29.9226C21.5076 29.4382 21.2815 28.5879 21.2008 28.0443C21.147 27.7053 21.1201 27.0972 21.1201 26.3383V25.1651L21.3354 25.0198L21.5506 24.8799H24.2146H26.8786V24.6646V24.4493L28.886 24.4386L30.888 24.4224V23.1039V21.7854L28.886 21.7692L26.8786 21.7584V21.5432V21.3279H26.0336H25.1833L24.2577 20.9027C23.2674 20.4507 22.7508 20.1331 22.2825 19.708C21.9543 19.412 21.5452 18.8738 21.2977 18.4217C20.9586 17.8082 20.6895 16.8664 20.6895 16.3013V15.9999H20.2321H19.7746V16.1722ZM20.7756 21.9199C21.2762 22.1352 21.5937 22.6841 21.5345 23.2492C21.4161 24.3901 19.9953 24.8476 19.2365 23.9865C18.9997 23.712 18.9136 23.486 18.9136 23.12C18.9189 22.119 19.8446 21.5216 20.7756 21.9199ZM26.0067 23.1146L25.9906 23.9919L24.1231 24.008C23.0898 24.0134 22.2503 24.0134 22.2503 23.9973C22.2503 23.9865 22.2879 23.8735 22.3364 23.7443C22.444 23.4429 22.444 22.7702 22.3364 22.4688L22.2556 22.2428H24.1393H26.0175L26.0067 23.1146ZM30 23.1039V23.5344H28.4393H26.8786V23.1039V22.6733H28.4393H30V23.1039ZM19.3172 25.1167C19.4948 25.1974 19.7693 25.2781 19.9253 25.2943L20.2052 25.3266V26.1123C20.2106 27.6676 20.3505 28.7117 20.6895 29.7342C21.1739 31.1819 22.0996 32.565 23.2513 33.5553L23.7571 33.9912L23.7464 37.8768L23.7302 41.7625L23.5688 42.0262C23.1221 42.742 22.1049 42.855 21.5022 42.2576C21.1578 41.9132 21.0986 41.6441 21.1362 40.6754C21.1524 40.2341 21.2062 39.5882 21.2546 39.2492C21.3354 38.6895 21.6367 37.1772 21.7713 36.6444L21.8251 36.4399L21.9758 36.5798L22.1211 36.7198L22.4225 36.4614C22.5893 36.3215 22.7238 36.1816 22.7292 36.1547C22.7292 36.1224 22.5086 35.8371 22.2341 35.5196C21.9596 35.1967 21.5668 34.707 21.3569 34.4271C20.0922 32.7373 19.2634 30.676 18.9943 28.5126C18.9082 27.8345 18.8759 24.9068 18.9566 24.9444C18.9781 24.9552 19.1396 25.0359 19.3172 25.1167ZM27.3091 33.7867V34.2441H26.8786H26.448V33.7867V33.3292H26.8786H27.3091V33.7867ZM20.9317 35.3474C21.0878 35.5465 21.0986 35.5788 21.0555 35.7887L21.0071 36.0201H20.3882H19.7746V35.5627V35.0998L20.2644 35.116L20.7541 35.1321L20.9317 35.3474ZM25.5331 35.5627V36.0201H25.1026H24.672V35.5627V35.1052H25.1026H25.5331V35.5627ZM27.3091 35.5627V36.0201H26.8786H26.448V35.5627V35.1052H26.8786H27.3091V35.5627ZM27.3091 37.3387V37.7961H26.8786H26.448V37.3387V36.8812H26.8786H27.3091V37.3387Z" fill="#2408E8"/>
<path d="M19.7754 23.1039V23.5344H20.2328H20.6903V23.1039V22.6733H20.2328H19.7754V23.1039Z" fill="#2408E8"/>
<path d="M22.0181 40.896C21.9966 40.9175 21.9805 41.1274 21.9805 41.3588V41.7786H22.4379H22.9008L22.8846 41.3319L22.8685 40.8906L22.4648 40.8744C22.2388 40.869 22.0397 40.8744 22.0181 40.896Z" fill="#2408E8"/>
<path d="M39.1484 20.9942C38.5833 21.1826 38.2443 21.4355 37.9375 21.893C37.2487 22.9317 37.55 24.304 38.6102 24.9875L38.8793 25.1597V26.3383C38.8793 27.0972 38.8524 27.7053 38.7986 28.0443C38.7179 28.5879 38.4918 29.4382 38.2927 29.9226C37.8191 31.112 36.9204 32.2852 35.7902 33.1893L35.3274 33.566V33.9051V34.2441H34.8968H34.4663V33.3562V32.4682H33.1208H31.7754V35.5627V38.6572H33.1208H34.4663V37.7692V36.8812H34.8914H35.322L35.3381 39.3407C35.3543 41.7625 35.3596 41.8109 35.478 42.1123C35.7148 42.7043 36.1884 43.1725 36.7697 43.3985C37.1679 43.5546 37.8622 43.5654 38.2712 43.4254C38.8955 43.2156 39.4713 42.6182 39.6758 41.9777C39.8911 41.2889 39.6651 38.7702 39.2291 37.0319L39.1915 36.8812H40.1387H41.0859V35.5627V34.2441H40.4939C40.171 34.2441 39.9019 34.228 39.9019 34.2011C39.9019 34.1796 39.9342 34.115 39.9772 34.0558C40.1333 33.8244 40.7522 32.635 40.9136 32.2475C41.5002 30.8321 41.8232 29.5297 41.9469 28.082C42.0169 27.2425 42.0169 23.0985 41.9469 22.7218C41.8178 22.0168 41.3442 21.414 40.6768 21.1019C40.2194 20.8866 39.6005 20.8435 39.1484 20.9942ZM40.3055 21.893C40.7629 22.076 41.0859 22.5819 41.0859 23.12C41.0859 23.486 40.9997 23.712 40.7629 23.9865C40.0041 24.8476 38.5833 24.3901 38.4649 23.2492C38.3627 22.2482 39.3637 21.5109 40.3055 21.893ZM41.0859 26.4029C41.0859 27.9959 41.0213 28.7332 40.7899 29.7504C40.327 31.7847 39.4552 33.5068 38.0236 35.2075C37.7384 35.5465 37.4424 35.8963 37.3617 35.9932L37.2164 36.1654L37.55 36.4399L37.8783 36.7198L38.0236 36.5798L38.1743 36.4399L38.2281 36.6444C38.3627 37.1772 38.6641 38.6895 38.7448 39.2492C38.7932 39.5882 38.847 40.2341 38.8632 40.6754C38.9009 41.6441 38.8417 41.9132 38.4972 42.2576C37.8945 42.855 36.8773 42.742 36.4306 42.0262L36.2692 41.7625L36.253 37.8768L36.2423 33.9912L36.7481 33.5553C37.62 32.8018 38.4488 31.7093 38.9385 30.6653C39.5574 29.336 39.7888 28.0982 39.7942 26.1123V25.3266L40.0902 25.2943C40.2624 25.2781 40.5154 25.1974 40.693 25.1059C40.8652 25.0144 41.0213 24.9445 41.0482 24.9391C41.0697 24.9337 41.0859 25.5956 41.0859 26.4029ZM33.5514 33.7867V34.2441H33.1208H32.6903V33.7867V33.3292H33.1208H33.5514V33.7867ZM33.5514 35.5627V36.0201H33.1208H32.6903V35.5627V35.1052H33.1208H33.5514V35.5627ZM35.3274 35.5627V36.0201H34.8968H34.4663V35.5627V35.1052H34.8968H35.3274V35.5627ZM40.2248 35.5627V36.0201H39.6059H38.987L38.9547 35.8049C38.9062 35.525 38.9009 35.5573 39.0892 35.3151L39.2614 35.1052H39.7404H40.2248V35.5627ZM33.5514 37.3387V37.7961H33.1208H32.6903V37.3387V36.8812H33.1208H33.5514V37.3387Z" fill="#2408E8"/>
<path d="M39.3105 23.1039V23.5344H39.768H40.2254V23.1039V22.6733H39.768H39.3105V23.1039Z" fill="#2408E8"/>
<path d="M37.1412 40.896C37.1197 40.9175 37.1035 41.1274 37.1035 41.3588V41.7786H37.561H38.0238L38.0077 41.3319L37.9915 40.8906L37.5879 40.8744C37.3618 40.869 37.1627 40.8744 37.1412 40.896Z" fill="#2408E8"/>
</svg>
