<svg width="40" height="40" viewBox="0 0 40 40" fill="none" xmlns="http://www.w3.org/2000/svg">
<circle cx="20" cy="20" r="20" fill="#F6F4FF"/>
<circle cx="20" cy="20" r="19.5" stroke="#2408E8" stroke-opacity="0.3"/>
<path d="M20 10C14.48 10 10 14.48 10 20C10 25.52 14.48 30 20 30H25V28H20C15.66 28 12 24.34 12 20C12 15.66 15.66 12 20 12C24.34 12 28 15.66 28 20V21.43C28 22.22 27.29 23 26.5 23C25.71 23 25 22.22 25 21.43V20C25 17.24 22.76 15 20 15C17.24 15 15 17.24 15 20C15 22.76 17.24 25 20 25C21.38 25 22.64 24.44 23.54 23.53C24.19 24.42 25.31 25 26.5 25C28.47 25 30 23.4 30 21.43V20C30 14.48 25.52 10 20 10ZM20 23C18.34 23 17 21.66 17 20C17 18.34 18.34 17 20 17C21.66 17 23 18.34 23 20C23 21.66 21.66 23 20 23Z" fill="#2408E8"/>
</svg>
