<svg width="60" height="60" viewBox="0 0 60 60" fill="none" xmlns="http://www.w3.org/2000/svg">
<circle r="30" transform="matrix(-1 0 0 1 30 30)" fill="#F6F4FF"/>
<circle r="29.5" transform="matrix(-1 0 0 1 30 30)" stroke="#2408E8" stroke-opacity="0.3"/>
<path d="M39.0554 18.0721C38.2279 18.2948 37.5261 19.0207 37.3519 19.8385C37.2648 20.2354 37.3229 20.8645 37.4729 21.2371L37.5987 21.5468L36.4615 22.6889L35.3242 23.8262L35.7452 24.2521L36.1711 24.6731L37.3084 23.5358L38.4505 22.3986L38.7602 22.5292C39.0457 22.6502 39.1328 22.6599 39.6555 22.6647C40.2265 22.6647 40.2411 22.6599 40.6137 22.4857C41.8671 21.8856 42.3607 20.4338 41.7219 19.2336C41.5574 18.919 41.0783 18.4399 40.7637 18.2754C40.2556 18.0044 39.5974 17.927 39.0554 18.0721Z" fill="#2408E8"/>
<path d="M33.9879 21.1548C33.4507 21.2952 32.9958 21.6968 32.8022 22.2001C32.6571 22.5728 32.6571 23.2019 32.8022 23.7197C33.0055 24.465 33.412 25.128 34.0895 25.8297C34.9219 26.6911 35.7494 27.1363 36.7899 27.2815C38.145 27.4702 39.079 26.4733 38.8612 25.0699C38.8031 24.6827 38.6434 24.2278 38.5369 24.1165C38.3434 23.923 38.0046 23.9955 37.9175 24.252C37.8788 24.3537 37.8933 24.465 37.9756 24.7118C38.2127 25.4425 38.1643 25.9119 37.8207 26.2507C37.4723 26.5991 36.9496 26.633 36.185 26.3523C35.28 26.0233 34.2105 25.0554 33.7604 24.1649C33.2862 23.2116 33.3443 22.3598 33.9056 22.0259C34.1089 21.9049 34.1815 21.8904 34.5251 21.8952C34.7961 21.8952 34.9993 21.9291 35.2026 22.0017C35.3575 22.0598 35.551 22.1082 35.6236 22.1082C35.943 22.1082 36.0834 21.6388 35.8269 21.4355C35.4978 21.179 34.496 21.029 33.9879 21.1548Z" fill="#2408E8"/>
<path d="M31.4516 23.3518C30.8999 23.981 30.8805 24.9779 31.3983 26.0619C31.6742 26.633 31.9404 27.0056 32.4388 27.5186C33.1744 28.2735 33.9439 28.7187 34.8488 28.9026C35.5506 29.0478 36.049 28.9752 36.5184 28.6607C36.8911 28.409 36.9588 28.1429 36.712 27.9154C36.5717 27.7799 36.3926 27.7944 36.1652 27.959C35.8942 28.1574 35.6522 28.2203 35.2796 28.1961C34.5246 28.138 33.7745 27.7315 32.9954 26.9524C32.4582 26.4152 32.2598 26.1248 31.9839 25.4715C31.8387 25.1327 31.8194 25.0311 31.8194 24.644C31.8145 24.2229 31.8194 24.1987 31.9984 23.9132C32.2017 23.5745 32.2162 23.4777 32.0759 23.2986C31.9984 23.2018 31.9355 23.1728 31.7903 23.1728C31.6403 23.1728 31.5774 23.2018 31.4516 23.3518Z" fill="#2408E8"/>
<path d="M29.8266 24.9731C29.12 25.7377 29.2314 27.0443 30.117 28.3703C30.4364 28.8446 31.1284 29.5705 31.5252 29.8367C32.6286 30.5771 33.8482 30.8142 34.6176 30.4368C35.1306 30.1851 35.2903 29.9093 35.0774 29.6383C34.9467 29.4737 34.6999 29.4689 34.487 29.6286C33.8046 30.1319 32.5657 29.7689 31.4333 28.7333C30.8913 28.2397 30.4412 27.5331 30.2428 26.8604C30.1557 26.5798 30.1412 26.4249 30.1557 26.1442C30.175 25.8248 30.1992 25.7522 30.3589 25.5199C30.509 25.307 30.538 25.2296 30.509 25.1086C30.4412 24.7892 30.0637 24.7166 29.8266 24.9731Z" fill="#2408E8"/>
<path d="M28.1934 26.6087C27.9321 26.8362 27.7578 27.2814 27.7336 27.7702C27.7094 28.2638 27.7675 28.5735 27.9805 29.1058C28.4499 30.2673 29.3742 31.2739 30.4582 31.8111C31.1503 32.1547 31.489 32.2418 32.1278 32.2418C32.6069 32.2466 32.6553 32.2369 32.9602 32.0869C33.3667 31.8885 33.5506 31.6852 33.5119 31.4771C33.4441 31.1384 33.1296 31.0658 32.7811 31.3126C32.5827 31.4529 32.5101 31.4723 32.1762 31.4868C31.5471 31.5159 30.826 31.2352 30.1388 30.6835C29.4758 30.156 29.108 29.6962 28.7886 29.0139C28.5612 28.5203 28.4789 28.167 28.5079 27.7556C28.5225 27.4846 28.5515 27.3975 28.7112 27.1701C28.9145 26.8749 28.9193 26.7394 28.7402 26.5603C28.5999 26.42 28.387 26.4393 28.1934 26.6087Z" fill="#2408E8"/>
<path d="M26.5439 28.259C26.452 28.3412 26.3116 28.53 26.239 28.68C26.1132 28.9365 26.1035 28.9946 26.1035 29.5608C26.1035 30.0689 26.1229 30.2141 26.2197 30.4803C26.4907 31.2449 26.873 31.8498 27.4731 32.4741C28.0925 33.1177 28.6732 33.4904 29.4669 33.7517C29.8202 33.8679 29.9557 33.8872 30.459 33.8872C30.9768 33.892 31.0639 33.8824 31.2575 33.7759C31.7656 33.5097 31.9302 33.3065 31.8334 33.0597C31.7221 32.7693 31.4946 32.7306 31.1559 32.9532C30.3816 33.4468 29.0604 32.9871 27.957 31.845C27.2214 31.0852 26.8246 30.2286 26.8585 29.4737C26.8778 29.1252 26.8923 29.0623 27.0424 28.8494C27.2456 28.559 27.2553 28.38 27.0762 28.2203C26.8972 28.0702 26.7472 28.0799 26.5439 28.259Z" fill="#2408E8"/>
<path d="M24.8979 29.9043C24.806 29.9866 24.6705 30.1705 24.6027 30.3109C24.2011 31.1626 24.4721 32.3918 25.3093 33.5291C25.5803 33.9017 26.2965 34.6083 26.6256 34.8309C26.9983 35.0874 27.6274 35.3584 28.092 35.4697C28.8663 35.6536 29.4518 35.581 29.9164 35.2422C30.26 34.9954 30.3036 34.8067 30.081 34.555C29.9455 34.4098 29.7858 34.4195 29.5147 34.5937C29.0163 34.9131 28.3872 34.8744 27.579 34.4728C26.2723 33.8194 25.2028 32.3579 25.2028 31.2303C25.2028 30.8529 25.2512 30.6787 25.4303 30.4464C25.59 30.2334 25.5851 29.9866 25.4206 29.856C25.2415 29.7156 25.0964 29.7301 24.8979 29.9043Z" fill="#2408E8"/>
<path d="M23.1761 31.6078C23.0116 31.7385 22.8229 32.0434 22.7358 32.3241C22.4793 33.1516 22.7987 34.3421 23.5294 35.2858L23.6746 35.4745L22.6148 36.5343L21.5501 37.599L21.2839 37.478C20.6451 37.1828 19.7837 37.2409 19.1401 37.6184C18.8497 37.7878 18.4238 38.2475 18.2641 38.5669C17.5721 39.9219 18.298 41.5431 19.7644 41.9254C21.6662 42.4191 23.3262 40.4059 22.4696 38.6443L22.3825 38.4604L23.4471 37.3958L24.507 36.3359L24.7731 36.5343C25.4023 37.0086 26.3847 37.3522 27.1009 37.3522C27.609 37.3522 28.3591 36.9796 28.4317 36.6892C28.4753 36.5247 28.3688 36.3311 28.1994 36.2488C28.0543 36.1811 27.9284 36.2246 27.58 36.4472C27.4348 36.5392 27.3477 36.5537 26.9751 36.5489C26.6024 36.5489 26.4815 36.5247 26.1524 36.394C24.7683 35.8472 23.5197 34.3518 23.4278 33.1322C23.3987 32.7112 23.4375 32.5225 23.6117 32.266C23.7859 32.0047 23.8004 31.7966 23.6456 31.6514C23.5197 31.5352 23.2923 31.511 23.1761 31.6078Z" fill="#2408E8"/>
</svg>
